# xmcd
#
# Track frame offsets:
#	150
#	14493
#	30927
#	46687
#	60592
#	76694
#	93152
#	107151
#	123407
#	141684
#	156929
#	175234
#	189949
#	206801
#	225361
#	241882
#	261650
#	276619
#	288964
#	302117
#	316538
#
# Disc length: 4345 seconds
#
# Revision: 1
# Processed by: cddbd v1.5.2PL0 Copyright (c) Steve Scherf et al.
# Submitted via: audiograbber 1.83.01
#
DISCID=1e10f715
DTITLE=Artists Carousel - Artists Carousel 009
DYEAR=2007
DGENRE=Country
TTITLE0=Save Some For Me  - Ken Wentworth
TTITLE1=Don´t Meeasure My Love  - Nelson and The Stagecoach
TTITLE2=Mona  - Aage Nordheim
TTITLE3=Truckers Chapel  - Wendell Austin
TTITLE4=I Have All I Need  - Billy D Hunter Feat Dick Curless
TTITLE5=Back In The Saddle Again  - Hank Decato
TTITLE6=Fanning The Flame  - Ken Wentworth
TTITLE7=Don´t You Ever Get Tired Of Hunting Me  - Slim Andrews
TTITLE8=Till I Gain Control Again - Archie Rivers
TTITLE9=Wild Eyed Steer  - Patti Mckinnon
TTITLE10=A Teardrop Has To Fall - Jack Boucher
TTITLE11=In My Book  - Garrick Alden
TTITLE12=Living On Love  - Archie Rivers
TTITLE13=Clouds Over Nashville  - Patti Mckinnon
TTITLE14=Some Kind Of Night  - Edd Taylor
TTITLE15=Hide - Manon´s Dream
TTITLE16=The Walz Of The Angels  - Jimmy Eaves
TTITLE17=When Did You Stop Loving Me  - Gary Moffett
TTITLE18=Make The World Go Away  - Gary Moffett
TTITLE19=So Many Reasons - Bob Lindsey
TTITLE20=All The Oil In Texas - Stan Anderson
EXTD=
EXTT0=
EXTT1=
EXTT2=
EXTT3=
EXTT4=
EXTT5=
EXTT6=
EXTT7=
EXTT8=
EXTT9=
EXTT10=
EXTT11=
EXTT12=
EXTT13=
EXTT14=
EXTT15=
EXTT16=
EXTT17=
EXTT18=
EXTT19=
EXTT20=
PLAYORDER=
